<svg xmlns="http://www.w3.org/2000/svg" xmlns:xlink="http://www.w3.org/1999/xlink" width="500" zoomAndPan="magnify" viewBox="0 0 375 374.999991" height="500" preserveAspectRatio="xMidYMid meet" version="1.0"><defs><g/></defs><rect x="-37.5" width="450" fill="#ffffff" y="-37.499999" height="449.999989" fill-opacity="1"/><rect x="-37.5" width="450" fill="#ffffff" y="-37.499999" height="449.999989" fill-opacity="1"/><g fill="#000000" fill-opacity="1"><g transform="translate(27.832929, 223.234644)"><g><path d="M 76.125 -45.53125 L 76.96875 -45.40625 L 65.65625 0 L -5.03125 0 L -5.03125 -0.84375 L 3.359375 -8.109375 L 22.90625 -85.90625 L 17.875 -93.453125 L 17.875 -94.296875 L 58.25 -94.296875 L 58.25 -93.453125 L 48.890625 -85.90625 L 28.078125 -2.515625 L 32.546875 -2.515625 C 36.828125 -2.515625 41.0625 -4.304688 45.25 -7.890625 C 49.445312 -11.472656 54.035156 -16.476562 59.015625 -22.90625 C 63.992188 -29.332031 69.695312 -36.875 76.125 -45.53125 Z M 76.125 -45.53125 "/></g></g></g><g fill="#000000" fill-opacity="1"><g transform="translate(97.955241, 223.234644)"><g><path d="M 46.796875 -76.265625 C 49.398438 -76.265625 51.984375 -75.679688 54.546875 -74.515625 C 57.109375 -73.359375 59.226562 -71.660156 60.90625 -69.421875 C 62.582031 -67.191406 63.28125 -64.351562 63 -60.90625 C 62.625 -56.0625 60.664062 -51.800781 57.125 -48.125 C 53.59375 -44.445312 49.007812 -41.421875 43.375 -39.046875 C 37.738281 -36.671875 31.566406 -35.015625 24.859375 -34.078125 C 26.160156 -29.054688 28.347656 -24.773438 31.421875 -21.234375 C 34.503906 -17.691406 38.554688 -15.921875 43.578125 -15.921875 C 45.722656 -15.921875 47.726562 -16.175781 49.59375 -16.6875 C 51.457031 -17.207031 53.269531 -17.882812 55.03125 -18.71875 L 55.171875 -18.015625 C 52.285156 -14.566406 49.050781 -11.351562 45.46875 -8.375 C 41.882812 -5.394531 38.578125 -2.972656 35.546875 -1.109375 C 32.523438 0.742188 30.316406 1.671875 28.921875 1.671875 C 23.890625 1.671875 19.226562 0.507812 14.9375 -1.8125 C 10.65625 -4.144531 7.300781 -7.660156 4.875 -12.359375 C 2.457031 -17.066406 1.484375 -22.910156 1.953125 -29.890625 C 2.234375 -36.691406 3.65625 -42.910156 6.21875 -48.546875 C 8.78125 -54.179688 12.128906 -59.066406 16.265625 -63.203125 C 20.410156 -67.347656 25.113281 -70.5625 30.375 -72.84375 C 35.644531 -75.125 41.117188 -76.265625 46.796875 -76.265625 Z M 24.453125 -36.3125 C 27.054688 -36.875 29.5 -38.34375 31.78125 -40.71875 C 34.0625 -43.09375 35.921875 -46.003906 37.359375 -49.453125 C 38.804688 -52.898438 39.53125 -56.390625 39.53125 -59.921875 C 39.53125 -62.804688 39.039062 -65.25 38.0625 -67.25 C 37.082031 -69.257812 35.382812 -70.265625 32.96875 -70.265625 C 30.632812 -70.265625 28.5625 -68.585938 26.75 -65.234375 C 24.9375 -61.878906 23.796875 -57.035156 23.328125 -50.703125 C 23.046875 -46.046875 23.421875 -41.25 24.453125 -36.3125 Z M 24.453125 -36.3125 "/></g></g></g><g fill="#000000" fill-opacity="1"><g transform="translate(149.359438, 223.234644)"><g><path d="M 48.328125 -73.46875 L 48.46875 -74.3125 L 73.46875 -74.3125 C 70.769531 -63.320312 67.554688 -53.144531 63.828125 -43.78125 C 60.109375 -34.425781 56.035156 -26.328125 51.609375 -19.484375 C 47.191406 -12.640625 42.535156 -7.304688 37.640625 -3.484375 C 32.753906 0.328125 27.75 2.234375 22.625 2.234375 C 19.832031 2.234375 17.128906 1.648438 14.515625 0.484375 C 11.910156 -0.671875 9.75 -2.4375 8.03125 -4.8125 C 6.3125 -7.1875 5.453125 -10.191406 5.453125 -13.828125 C 5.453125 -20.253906 8.242188 -27.050781 13.828125 -34.21875 C 19.410156 -41.394531 27 -48.148438 36.59375 -54.484375 L 36.59375 -55.171875 L 24.578125 -55.171875 C 19.179688 -55.171875 15.085938 -54.519531 12.296875 -53.21875 C 9.503906 -51.914062 6.753906 -49.632812 4.046875 -46.375 L 3.078125 -46.65625 L 12.984375 -74.3125 L 44.28125 -74.3125 L 44.28125 -73.46875 C 42.882812 -69.1875 41.367188 -64.554688 39.734375 -59.578125 C 38.109375 -54.597656 36.523438 -49.613281 34.984375 -44.625 C 33.453125 -39.644531 32.21875 -34.921875 31.28125 -30.453125 C 30.351562 -25.984375 29.890625 -22.070312 29.890625 -18.71875 C 29.890625 -15.738281 30.378906 -13.316406 31.359375 -11.453125 C 32.335938 -9.585938 34.035156 -8.65625 36.453125 -8.65625 C 38.691406 -8.65625 40.601562 -9.816406 42.1875 -12.140625 C 43.769531 -14.472656 45.117188 -17.59375 46.234375 -21.5 C 47.347656 -25.414062 48.207031 -29.769531 48.8125 -34.5625 C 49.425781 -39.363281 49.800781 -44.1875 49.9375 -49.03125 C 50.070312 -53.875 50 -58.4375 49.71875 -62.71875 C 49.445312 -67 48.984375 -70.582031 48.328125 -73.46875 Z M 48.328125 -73.46875 "/></g></g></g><g fill="#000000" fill-opacity="1"><g transform="translate(207.04957, 223.234644)"><g><path d="M 26.125 2.09375 C 19.507812 2.09375 14.148438 0.300781 10.046875 -3.28125 C 5.953125 -6.863281 3.273438 -11.679688 2.015625 -17.734375 C 0.765625 -23.785156 0.929688 -30.445312 2.515625 -37.71875 C 4.003906 -44.238281 6.210938 -49.78125 9.140625 -54.34375 C 12.078125 -58.90625 15.316406 -62.628906 18.859375 -65.515625 C 22.398438 -68.398438 25.867188 -70.632812 29.265625 -72.21875 C 32.660156 -73.800781 35.640625 -74.894531 38.203125 -75.5 C 40.765625 -76.101562 42.507812 -76.40625 43.4375 -76.40625 C 50.144531 -76.40625 55.5 -74.585938 59.5 -70.953125 C 63.507812 -67.328125 66.140625 -62.488281 67.390625 -56.4375 C 68.648438 -50.382812 68.441406 -43.628906 66.765625 -36.171875 C 65.273438 -29.660156 63.085938 -24.164062 60.203125 -19.6875 C 57.316406 -15.21875 54.101562 -11.5625 50.5625 -8.71875 C 47.03125 -5.882812 43.5625 -3.675781 40.15625 -2.09375 C 36.757812 -0.507812 33.800781 0.582031 31.28125 1.1875 C 28.769531 1.789062 27.050781 2.09375 26.125 2.09375 Z M 38.28125 -4.46875 C 40.789062 -5.488281 42.488281 -8.789062 43.375 -14.375 C 44.257812 -19.96875 44.328125 -28.769531 43.578125 -40.78125 C 41.347656 -62.300781 37.160156 -72.035156 31.015625 -69.984375 C 28.492188 -68.960938 26.722656 -65.632812 25.703125 -60 C 24.679688 -54.363281 24.632812 -45.585938 25.5625 -33.671875 C 26.582031 -22.773438 28.234375 -14.90625 30.515625 -10.0625 C 32.796875 -5.21875 35.382812 -3.351562 38.28125 -4.46875 Z M 38.28125 -4.46875 "/></g></g></g><g fill="#000000" fill-opacity="1"><g transform="translate(267.254072, 223.234644)"><g><path d="M 62.71875 -18.015625 L 63 -18.015625 L 76.546875 -25 L 76.96875 -24.03125 C 71.65625 -17.414062 67.414062 -12.242188 64.25 -8.515625 C 61.082031 -4.796875 58.453125 -2.164062 56.359375 -0.625 C 54.265625 0.90625 52.148438 1.671875 50.015625 1.671875 C 46.753906 1.671875 44.445312 -0.1875 43.09375 -3.90625 C 41.738281 -7.632812 41.390625 -12.804688 42.046875 -19.421875 L 51.6875 -46.515625 C 52.15625 -47.910156 52.644531 -49.585938 53.15625 -51.546875 C 53.664062 -53.503906 53.921875 -55.226562 53.921875 -56.71875 C 53.921875 -58.207031 53.410156 -58.953125 52.390625 -58.953125 C 51.265625 -58.953125 49.929688 -57.992188 48.390625 -56.078125 C 46.859375 -54.171875 45.046875 -50.957031 42.953125 -46.4375 C 40.859375 -41.925781 38.34375 -35.898438 35.40625 -28.359375 C 32.476562 -20.816406 29.007812 -11.363281 25 0 L 1.671875 0 L 15.640625 -55.59375 L 2.515625 -48.75 L 2.09375 -49.734375 C 7.40625 -56.335938 11.644531 -61.503906 14.8125 -65.234375 C 17.976562 -68.960938 20.609375 -71.59375 22.703125 -73.125 C 24.796875 -74.664062 26.867188 -75.4375 28.921875 -75.4375 C 32.265625 -75.4375 34.613281 -73.570312 35.96875 -69.84375 C 37.320312 -66.113281 37.671875 -60.945312 37.015625 -54.34375 L 25.421875 -13.265625 L 27.09375 -13.265625 C 29.988281 -21.929688 32.945312 -30.054688 35.96875 -37.640625 C 39 -45.234375 42.140625 -51.914062 45.390625 -57.6875 C 48.648438 -63.46875 52.070312 -67.960938 55.65625 -71.171875 C 59.25 -74.378906 63.046875 -75.984375 67.046875 -75.984375 C 68.628906 -75.984375 70.210938 -75.609375 71.796875 -74.859375 C 73.378906 -74.117188 74.660156 -72.84375 75.640625 -71.03125 C 76.617188 -69.21875 77.082031 -66.726562 77.03125 -63.5625 C 76.988281 -60.394531 76.128906 -56.34375 74.453125 -51.40625 Z M 62.71875 -18.015625 "/></g></g></g></svg>