<svg xmlns="http://www.w3.org/2000/svg" xmlns:xlink="http://www.w3.org/1999/xlink" width="500" zoomAndPan="magnify" viewBox="0 0 375 374.999991" height="500" preserveAspectRatio="xMidYMid meet" version="1.0"><defs><g/><clipPath id="0e82553c71"><path d="M 287.066406 188.25 L 291.136719 188.25 L 291.136719 192.320312 L 287.066406 192.320312 Z M 287.066406 188.25 " clip-rule="nonzero"/></clipPath><clipPath id="3b3b3f11e4"><path d="M 289.101562 188.25 C 287.976562 188.25 287.066406 189.160156 287.066406 190.285156 C 287.066406 191.40625 287.976562 192.320312 289.101562 192.320312 C 290.226562 192.320312 291.136719 191.40625 291.136719 190.285156 C 291.136719 189.160156 290.226562 188.25 289.101562 188.25 Z M 289.101562 188.25 " clip-rule="nonzero"/></clipPath></defs><g fill="#000000" fill-opacity="1"><g transform="translate(101.45396, 228.539729)"><g><path d="M 69.828125 -4.265625 C 69.847656 -4.265625 69.890625 -4.269531 69.953125 -4.28125 C 70.128906 -4.289062 70.304688 -4.28125 70.484375 -4.25 C 70.660156 -4.226562 70.820312 -4.148438 70.96875 -4.015625 C 71.019531 -3.984375 71.066406 -3.925781 71.109375 -3.84375 C 71.148438 -3.769531 71.160156 -3.695312 71.140625 -3.625 C 71.128906 -3.539062 71.097656 -3.460938 71.046875 -3.390625 C 71.003906 -3.316406 70.957031 -3.273438 70.90625 -3.265625 C 70.59375 -3.179688 70.273438 -3.132812 69.953125 -3.125 C 61.929688 -3.46875 53.160156 -3.109375 43.640625 -2.046875 C 34.117188 -0.984375 25.425781 0.601562 17.5625 2.71875 C 17.207031 2.789062 16.875 2.882812 16.5625 3 C 16.257812 3.070312 15.976562 3.144531 15.71875 3.21875 C 14.832031 3.488281 14.128906 4.003906 13.609375 4.765625 C 12.421875 6.554688 11.0625 8.191406 9.53125 9.671875 C 8.320312 10.816406 6.914062 11.570312 5.3125 11.9375 C 4.65625 12.070312 4 12.070312 3.34375 11.9375 C 2.726562 11.769531 2.289062 11.441406 2.03125 10.953125 C 1.78125 10.472656 1.765625 9.921875 1.984375 9.296875 C 2.367188 8.390625 3.09375 7.550781 4.15625 6.78125 C 5.226562 6.007812 6.398438 5.328125 7.671875 4.734375 C 8.941406 4.148438 10.019531 3.695312 10.90625 3.375 C 12.09375 2.945312 12.988281 2.1875 13.59375 1.09375 C 16.550781 -3.976562 19.273438 -9.628906 21.765625 -15.859375 C 24.253906 -22.097656 26.445312 -28.453125 28.34375 -34.921875 C 30.238281 -41.390625 31.773438 -47.535156 32.953125 -53.359375 C 32.972656 -53.660156 33.050781 -53.929688 33.1875 -54.171875 C 33.320312 -54.421875 33.539062 -54.613281 33.84375 -54.75 C 34.15625 -54.84375 34.4375 -54.820312 34.6875 -54.6875 C 34.9375 -54.5625 35.066406 -54.335938 35.078125 -54.015625 C 35.085938 -53.285156 35.019531 -52.554688 34.875 -51.828125 C 33.75 -46.304688 32.285156 -40.5 30.484375 -34.40625 C 28.691406 -28.3125 26.632812 -22.320312 24.3125 -16.4375 C 21.988281 -10.550781 19.484375 -5.160156 16.796875 -0.265625 C 16.242188 0.742188 16.113281 1.296875 16.40625 1.390625 C 16.707031 1.492188 17.25 1.398438 18.03125 1.109375 C 18.21875 1.054688 18.394531 1.007812 18.5625 0.96875 C 24.8125 -0.789062 31.378906 -2.082031 38.265625 -2.90625 C 45.148438 -3.738281 51.984375 -4.234375 58.765625 -4.390625 C 61.148438 -4.441406 63.503906 -4.4375 65.828125 -4.375 C 67.179688 -4.320312 68.515625 -4.285156 69.828125 -4.265625 Z M 5.984375 10.125 C 7.804688 9.019531 9.210938 7.515625 10.203125 5.609375 C 8.140625 6.097656 6.382812 7.046875 4.9375 8.453125 C 4.5 8.921875 4.265625 9.34375 4.234375 9.71875 C 4.203125 10.09375 4.34375 10.332031 4.65625 10.4375 C 4.976562 10.550781 5.421875 10.445312 5.984375 10.125 Z M 5.984375 10.125 "/></g></g><g transform="translate(133.570189, 223.323291)"><g><path d="M 8.8125 -8.265625 C 8.25 -7.492188 7.5625 -6.800781 6.75 -6.1875 C 5.9375 -5.582031 5.238281 -5.160156 4.65625 -4.921875 C 4.070312 -4.679688 3.46875 -4.492188 2.84375 -4.359375 C 1.820312 -4.148438 0.859375 -4.132812 -0.046875 -4.3125 C -1.546875 -4.664062 -2.207031 -5.675781 -2.03125 -7.34375 C -1.851562 -8.78125 -1.207031 -9.984375 -0.09375 -10.953125 C 1.019531 -11.921875 2.238281 -12.503906 3.5625 -12.703125 C 3.5625 -12.703125 3.570312 -12.703125 3.59375 -12.703125 C 3.925781 -12.785156 4.253906 -12.816406 4.578125 -12.796875 C 5.109375 -12.691406 5.476562 -12.441406 5.6875 -12.046875 C 5.894531 -11.660156 5.878906 -11.1875 5.640625 -10.625 C 5.078125 -9.375 4.171875 -8.585938 2.921875 -8.265625 C 2.085938 -8.046875 1.265625 -7.957031 0.453125 -8 C 0.304688 -7.988281 0.179688 -7.921875 0.078125 -7.796875 C -0.0234375 -7.679688 -0.078125 -7.539062 -0.078125 -7.375 C -0.148438 -6.34375 0.257812 -5.757812 1.15625 -5.625 C 2.257812 -5.425781 3.34375 -5.601562 4.40625 -6.15625 C 5.632812 -6.769531 6.738281 -7.726562 7.71875 -9.03125 C 8.707031 -10.34375 9.296875 -10.972656 9.484375 -10.921875 C 9.679688 -10.878906 9.773438 -10.675781 9.765625 -10.3125 C 9.691406 -9.71875 9.375 -9.035156 8.8125 -8.265625 Z M 0.96875 -9.859375 C 0.90625 -9.765625 0.867188 -9.664062 0.859375 -9.5625 C 0.847656 -9.457031 0.898438 -9.378906 1.015625 -9.328125 C 1.453125 -9.160156 1.898438 -9.144531 2.359375 -9.28125 C 2.828125 -9.425781 3.203125 -9.671875 3.484375 -10.015625 C 3.773438 -10.367188 3.859375 -10.75 3.734375 -11.15625 C 3.679688 -11.3125 3.585938 -11.398438 3.453125 -11.421875 C 3.316406 -11.441406 3.191406 -11.425781 3.078125 -11.375 C 2.234375 -11.082031 1.53125 -10.578125 0.96875 -9.859375 Z M 0.96875 -9.859375 "/></g></g><g transform="translate(143.668322, 221.683114)"><g><path d="M 8.703125 -16.40625 C 8.640625 -16.132812 8.550781 -15.867188 8.4375 -15.609375 C 7.039062 -12.253906 5.359375 -9.066406 3.390625 -6.046875 C 3.128906 -5.617188 2.832031 -5.21875 2.5 -4.84375 C 2.1875 -4.550781 1.835938 -4.3125 1.453125 -4.125 C 0.347656 -3.75 -0.390625 -4.101562 -0.765625 -5.1875 C -0.929688 -5.875 -1.039062 -6.5625 -1.09375 -7.25 C -1.144531 -7.570312 -1.195312 -7.878906 -1.25 -8.171875 C -1.25 -8.171875 -1.234375 -8.171875 -1.203125 -8.171875 C -1.234375 -8.378906 -1.265625 -8.582031 -1.296875 -8.78125 C -1.378906 -9.289062 -1.460938 -9.796875 -1.546875 -10.296875 C -1.585938 -10.578125 -1.625 -10.867188 -1.65625 -11.171875 C -1.625 -11.828125 -1.359375 -12.207031 -0.859375 -12.3125 C -0.304688 -12.375 0.0625 -12.03125 0.25 -11.28125 C 0.28125 -11.070312 0.289062 -10.878906 0.28125 -10.703125 C 0.289062 -10.515625 0.304688 -10.34375 0.328125 -10.1875 C 0.472656 -9.0625 0.625 -7.925781 0.78125 -6.78125 C 0.820312 -6.519531 0.957031 -6.382812 1.1875 -6.375 C 1.269531 -6.382812 1.335938 -6.410156 1.390625 -6.453125 C 1.453125 -6.503906 1.5 -6.5625 1.53125 -6.625 C 2.082031 -7.519531 2.613281 -8.414062 3.125 -9.3125 C 3.320312 -9.65625 3.523438 -10 3.734375 -10.34375 C 3.953125 -10.75 4.175781 -11.132812 4.40625 -11.5 C 5.269531 -13.0625 6.148438 -14.609375 7.046875 -16.140625 C 7.140625 -16.335938 7.257812 -16.507812 7.40625 -16.65625 C 7.5625 -16.8125 7.765625 -16.910156 8.015625 -16.953125 C 8.234375 -16.960938 8.429688 -16.914062 8.609375 -16.8125 C 8.660156 -16.769531 8.691406 -16.707031 8.703125 -16.625 C 8.710938 -16.550781 8.710938 -16.476562 8.703125 -16.40625 Z M 8.703125 -16.40625 "/></g></g><g transform="translate(152.898919, 220.183846)"><g><path d="M 2.09375 -4.578125 L 2.046875 -4.5625 C 0.359375 -4.3125 -0.804688 -4.503906 -1.453125 -5.140625 C -2.109375 -5.773438 -2.242188 -6.738281 -1.859375 -8.03125 C -1.523438 -9.019531 -1.039062 -9.914062 -0.40625 -10.71875 C -0.1875 -10.988281 0.0390625 -11.21875 0.28125 -11.40625 C 0.53125 -11.59375 0.820312 -11.710938 1.15625 -11.765625 C 1.34375 -11.828125 1.570312 -11.832031 1.84375 -11.78125 C 1.925781 -11.757812 2.015625 -11.742188 2.109375 -11.734375 C 2.285156 -11.796875 2.460938 -11.882812 2.640625 -12 C 2.679688 -12.039062 2.742188 -12.082031 2.828125 -12.125 C 3.179688 -12.34375 3.570312 -12.46875 4 -12.5 C 4.175781 -12.53125 4.359375 -12.5625 4.546875 -12.59375 C 5.253906 -12.59375 5.816406 -12.390625 6.234375 -11.984375 C 6.648438 -11.578125 6.863281 -11.03125 6.875 -10.34375 C 6.875 -9.925781 6.800781 -9.523438 6.65625 -9.140625 C 5.726562 -6.535156 4.242188 -5.019531 2.203125 -4.59375 Z M 3.828125 -11.203125 C 2.910156 -11.097656 2.140625 -10.707031 1.515625 -10.03125 C 0.890625 -9.363281 0.460938 -8.632812 0.234375 -7.84375 C 0.00390625 -7.0625 0.00390625 -6.445312 0.234375 -6 C 0.472656 -5.5625 0.984375 -5.503906 1.765625 -5.828125 C 2.628906 -6.265625 3.347656 -6.921875 3.921875 -7.796875 C 4.503906 -8.671875 4.8125 -9.460938 4.84375 -10.171875 C 4.882812 -10.878906 4.546875 -11.222656 3.828125 -11.203125 Z M 3.828125 -11.203125 "/></g></g><g transform="translate(162.112164, 218.687397)"><g><path d="M 12.328125 -10.890625 C 12.554688 -10.691406 12.394531 -10.234375 11.84375 -9.515625 C 11.300781 -8.804688 10.695312 -8.179688 10.03125 -7.640625 C 9.375 -7.109375 8.597656 -6.550781 7.703125 -5.96875 C 7.117188 -5.582031 6.460938 -5.378906 5.734375 -5.359375 C 5.003906 -5.335938 4.570312 -5.710938 4.4375 -6.484375 C 4.3125 -7.265625 4.363281 -8.0625 4.59375 -8.875 C 4.820312 -9.726562 4.832031 -10.144531 4.625 -10.125 C 4.425781 -10.113281 4.039062 -9.859375 3.46875 -9.359375 C 1.988281 -8.003906 0.65625 -6.515625 -0.53125 -4.890625 C -0.84375 -4.367188 -1.289062 -4.03125 -1.875 -3.875 C -2.175781 -3.832031 -2.425781 -3.890625 -2.625 -4.046875 C -2.820312 -4.210938 -2.875 -4.414062 -2.78125 -4.65625 C -2.070312 -6.695312 -1.347656 -8.726562 -0.609375 -10.75 C -0.429688 -11.164062 -0.117188 -11.457031 0.328125 -11.625 C 0.515625 -11.6875 0.703125 -11.65625 0.890625 -11.53125 C 1.085938 -11.40625 1.203125 -11.242188 1.234375 -11.046875 C 1.242188 -10.847656 1.207031 -10.613281 1.125 -10.34375 C 1.082031 -10.1875 1.046875 -10.035156 1.015625 -9.890625 C 0.992188 -9.742188 1 -9.625 1.03125 -9.53125 C 1.0625 -9.4375 1.140625 -9.414062 1.265625 -9.46875 C 1.421875 -9.59375 1.570312 -9.722656 1.71875 -9.859375 C 2.125 -10.191406 2.507812 -10.507812 2.875 -10.8125 C 3.195312 -11.0625 3.539062 -11.300781 3.90625 -11.53125 C 4.28125 -11.757812 4.675781 -11.9375 5.09375 -12.0625 C 5.78125 -12.21875 6.296875 -12.140625 6.640625 -11.828125 C 6.992188 -11.523438 7.113281 -11.035156 7 -10.359375 C 6.851562 -9.742188 6.703125 -9.128906 6.546875 -8.515625 C 6.316406 -7.941406 6.328125 -7.53125 6.578125 -7.28125 C 6.828125 -7.039062 7.738281 -7.519531 9.3125 -8.71875 L 10.5 -9.671875 C 11.601562 -10.660156 12.210938 -11.066406 12.328125 -10.890625 Z M 12.328125 -10.890625 "/></g></g><g transform="translate(174.830261, 216.621676)"><g><path d="M 125.703125 -8.578125 C 125.753906 -8.566406 125.796875 -8.519531 125.828125 -8.4375 C 125.859375 -8.351562 125.878906 -8.285156 125.890625 -8.234375 C 125.867188 -8.148438 125.835938 -8.078125 125.796875 -8.015625 C 125.753906 -7.960938 125.707031 -7.921875 125.65625 -7.890625 C 125.445312 -7.753906 125.226562 -7.675781 125 -7.65625 C 124.769531 -7.625 124.539062 -7.609375 124.3125 -7.609375 C 124.207031 -7.609375 124.128906 -7.601562 124.078125 -7.59375 C 122.984375 -7.519531 121.890625 -7.460938 120.796875 -7.421875 C 118.253906 -7.273438 115.738281 -7.113281 113.25 -6.9375 C 108.382812 -6.59375 103.523438 -6.207031 98.671875 -5.78125 C 91.878906 -5.15625 85.085938 -4.421875 78.296875 -3.578125 C 73.429688 -2.960938 68.570312 -2.304688 63.71875 -1.609375 C 63.175781 -1.546875 62.640625 -1.46875 62.109375 -1.375 C 61.554688 -1.289062 61.007812 -1.210938 60.46875 -1.140625 C 57.175781 -0.691406 53.890625 -0.203125 50.609375 0.328125 L 50.53125 0.34375 C 48.59375 0.65625 46.679688 1.007812 44.796875 1.40625 C 44.066406 1.539062 43.363281 1.664062 42.6875 1.78125 C 41.8125 1.9375 40.960938 2.242188 40.140625 2.703125 C 33.847656 6.128906 27.382812 8.941406 20.75 11.140625 C 18.832031 11.785156 16.910156 12.375 14.984375 12.90625 C 13.066406 13.445312 11.125 13.878906 9.15625 14.203125 C 8.519531 14.304688 7.882812 14.394531 7.25 14.46875 C 6.289062 14.625 5.34375 14.648438 4.40625 14.546875 C 4.039062 14.523438 3.6875 14.46875 3.34375 14.375 C 3.050781 14.3125 2.789062 14.195312 2.5625 14.03125 C 2.34375 13.863281 2.21875 13.617188 2.1875 13.296875 C 2.195312 12.953125 2.296875 12.644531 2.484375 12.375 C 2.671875 12.113281 2.898438 11.882812 3.171875 11.6875 C 3.984375 11.03125 4.863281 10.535156 5.8125 10.203125 C 6.269531 9.992188 6.742188 9.796875 7.234375 9.609375 C 8.828125 8.972656 10.441406 8.390625 12.078125 7.859375 C 18.648438 5.765625 25.242188 4.03125 31.859375 2.65625 C 32.265625 2.550781 32.648438 2.453125 33.015625 2.359375 C 35.066406 1.921875 37.117188 1.5 39.171875 1.09375 C 39.898438 0.957031 40.613281 0.695312 41.3125 0.3125 C 43.695312 -1.050781 46.03125 -2.515625 48.3125 -4.078125 C 50.601562 -5.648438 52.804688 -7.363281 54.921875 -9.21875 C 56.679688 -10.726562 58.257812 -12.4375 59.65625 -14.34375 C 60.445312 -15.375 61.050781 -16.503906 61.46875 -17.734375 C 61.976562 -19.492188 61.609375 -20.878906 60.359375 -21.890625 C 59.453125 -22.546875 58.441406 -23.015625 57.328125 -23.296875 C 55.859375 -23.703125 54.347656 -23.972656 52.796875 -24.109375 C 51.253906 -24.253906 49.691406 -24.335938 48.109375 -24.359375 C 43.671875 -24.378906 39.191406 -24.101562 34.671875 -23.53125 C 34.503906 -23.5 34.347656 -23.472656 34.203125 -23.453125 C 34.023438 -23.421875 33.84375 -23.390625 33.65625 -23.359375 C 33.289062 -23.234375 33.039062 -22.957031 32.90625 -22.53125 C 32.832031 -22.34375 32.765625 -22.15625 32.703125 -21.96875 C 32.578125 -21.5625 32.4375 -21.148438 32.28125 -20.734375 C 31.207031 -17.242188 30.140625 -13.765625 29.078125 -10.296875 C 28.210938 -7.367188 27.316406 -4.445312 26.390625 -1.53125 C 26.390625 -1.40625 26.367188 -1.3125 26.328125 -1.25 C 26.234375 -0.882812 26.109375 -0.535156 25.953125 -0.203125 C 25.765625 0.078125 25.515625 0.21875 25.203125 0.21875 C 25.023438 0.28125 24.84375 0.300781 24.65625 0.28125 C 24.3125 0.175781 24.171875 -0.046875 24.234375 -0.390625 C 24.398438 -1.148438 24.585938 -1.898438 24.796875 -2.640625 C 26.117188 -7.253906 27.441406 -11.835938 28.765625 -16.390625 C 29.203125 -17.867188 29.632812 -19.332031 30.0625 -20.78125 C 30.082031 -20.90625 30.117188 -21.023438 30.171875 -21.140625 C 30.253906 -21.460938 30.335938 -21.796875 30.421875 -22.140625 C 30.523438 -22.617188 30.347656 -22.832031 29.890625 -22.78125 C 29.648438 -22.757812 29.414062 -22.734375 29.1875 -22.703125 C 28.894531 -22.671875 28.59375 -22.648438 28.28125 -22.640625 C 28.238281 -22.628906 28.175781 -22.617188 28.09375 -22.609375 C 27.738281 -22.578125 27.398438 -22.582031 27.078125 -22.625 C 26.765625 -22.664062 26.546875 -22.875 26.421875 -23.25 C 26.347656 -23.675781 26.441406 -24.015625 26.703125 -24.265625 C 26.972656 -24.515625 27.273438 -24.738281 27.609375 -24.9375 C 27.734375 -25 27.847656 -25.046875 27.953125 -25.078125 C 28.847656 -25.648438 29.765625 -26.171875 30.703125 -26.640625 C 30.796875 -26.703125 30.90625 -26.753906 31.03125 -26.796875 C 31.757812 -27.148438 32.257812 -27.726562 32.53125 -28.53125 C 33.6875 -32.039062 34.863281 -35.539062 36.0625 -39.03125 C 36.46875 -40.226562 36.882812 -41.453125 37.3125 -42.703125 C 37.351562 -42.878906 37.398438 -43.050781 37.453125 -43.21875 C 37.546875 -43.5625 37.671875 -43.910156 37.828125 -44.265625 C 38.023438 -44.679688 38.328125 -44.878906 38.734375 -44.859375 C 38.921875 -44.910156 39.109375 -44.929688 39.296875 -44.921875 C 39.691406 -44.816406 39.859375 -44.535156 39.796875 -44.078125 C 39.796875 -44.054688 39.78125 -44.046875 39.75 -44.046875 C 39.601562 -43.140625 39.394531 -42.242188 39.125 -41.359375 C 38.445312 -39.253906 37.75 -37.128906 37.03125 -34.984375 C 36.8125 -34.265625 36.570312 -33.550781 36.3125 -32.84375 C 36.175781 -32.476562 36.050781 -32.117188 35.9375 -31.765625 C 35.726562 -31.160156 35.523438 -30.539062 35.328125 -29.90625 C 35.328125 -29.90625 35.320312 -29.882812 35.3125 -29.84375 C 35.269531 -29.738281 35.242188 -29.632812 35.234375 -29.53125 C 35.222656 -29.425781 35.285156 -29.363281 35.421875 -29.34375 C 35.515625 -29.3125 35.601562 -29.296875 35.6875 -29.296875 L 35.75 -29.328125 C 35.894531 -29.398438 36.050781 -29.472656 36.21875 -29.546875 C 36.269531 -29.566406 36.316406 -29.597656 36.359375 -29.640625 C 41.640625 -32.296875 46.910156 -35.015625 52.171875 -37.796875 C 57.441406 -40.585938 62.644531 -43.515625 67.78125 -46.578125 C 67.894531 -46.640625 68.003906 -46.691406 68.109375 -46.734375 C 69.679688 -47.703125 71.242188 -48.671875 72.796875 -49.640625 C 74.347656 -50.609375 75.867188 -51.628906 77.359375 -52.703125 C 78.472656 -53.484375 79.507812 -54.367188 80.46875 -55.359375 C 82.457031 -57.597656 82.285156 -59.28125 79.953125 -60.40625 C 78.847656 -60.914062 77.6875 -61.25 76.46875 -61.40625 C 75.25 -61.570312 74.019531 -61.628906 72.78125 -61.578125 C 69.8125 -61.554688 66.84375 -61.304688 63.875 -60.828125 L 63.8125 -60.8125 C 60.9375 -60.332031 58.0625 -59.722656 55.1875 -58.984375 C 48.789062 -57.367188 42.492188 -55.21875 36.296875 -52.53125 C 30.566406 -50.101562 25.046875 -47.148438 19.734375 -43.671875 C 18.347656 -42.765625 17.015625 -41.773438 15.734375 -40.703125 C 15.359375 -40.378906 14.988281 -40.082031 14.625 -39.8125 C 14.40625 -39.6875 14.1875 -39.625 13.96875 -39.625 C 13.695312 -39.539062 13.457031 -39.582031 13.25 -39.75 C 13.09375 -39.914062 13.0625 -40.082031 13.15625 -40.25 C 13.257812 -40.414062 13.382812 -40.566406 13.53125 -40.703125 C 14.625 -41.765625 15.78125 -42.695312 17 -43.5 C 17.019531 -43.5 17.035156 -43.507812 17.046875 -43.53125 C 22.035156 -46.957031 27.234375 -49.894531 32.640625 -52.34375 C 40.421875 -55.90625 48.378906 -58.628906 56.515625 -60.515625 C 59.023438 -61.109375 61.535156 -61.613281 64.046875 -62.03125 C 66.796875 -62.507812 69.546875 -62.8125 72.296875 -62.9375 C 74.867188 -63.09375 77.375 -62.898438 79.8125 -62.359375 C 80.957031 -62.117188 81.992188 -61.660156 82.921875 -60.984375 C 83.691406 -60.367188 84.109375 -59.625 84.171875 -58.75 C 84.234375 -57.875 83.953125 -56.953125 83.328125 -55.984375 C 82.515625 -54.867188 81.5625 -53.890625 80.46875 -53.046875 C 79.164062 -52.003906 77.8125 -51.03125 76.40625 -50.125 C 75.007812 -49.226562 73.601562 -48.347656 72.1875 -47.484375 C 72.132812 -47.453125 72.070312 -47.410156 72 -47.359375 C 67.039062 -44.316406 62.003906 -41.414062 56.890625 -38.65625 C 51.785156 -35.90625 46.648438 -33.226562 41.484375 -30.625 C 40.617188 -30.164062 39.753906 -29.707031 38.890625 -29.25 C 37.691406 -28.613281 36.492188 -27.988281 35.296875 -27.375 C 34.753906 -27.164062 34.351562 -26.785156 34.09375 -26.234375 C 33.894531 -25.734375 33.832031 -25.359375 33.90625 -25.109375 C 33.976562 -24.859375 34.289062 -24.769531 34.84375 -24.84375 C 36.300781 -25.019531 37.757812 -25.179688 39.21875 -25.328125 C 39.3125 -25.335938 39.398438 -25.351562 39.484375 -25.375 C 42.265625 -25.632812 45.023438 -25.773438 47.765625 -25.796875 C 50.503906 -25.828125 53.207031 -25.65625 55.875 -25.28125 C 57.03125 -25.101562 58.15625 -24.867188 59.25 -24.578125 C 59.96875 -24.378906 60.675781 -24.109375 61.375 -23.765625 C 64.320312 -22.148438 64.925781 -19.613281 63.1875 -16.15625 C 62.613281 -15.007812 61.914062 -13.945312 61.09375 -12.96875 C 59.050781 -10.539062 56.796875 -8.367188 54.328125 -6.453125 C 52.179688 -4.773438 49.988281 -3.1875 47.75 -1.6875 C 47.488281 -1.550781 47.21875 -1.378906 46.9375 -1.171875 C 46.800781 -1.078125 46.648438 -0.972656 46.484375 -0.859375 C 46.671875 -0.671875 46.832031 -0.5625 46.96875 -0.53125 C 47.101562 -0.507812 47.242188 -0.519531 47.390625 -0.5625 C 47.390625 -0.5625 47.40625 -0.5625 47.4375 -0.5625 C 47.875 -0.613281 48.296875 -0.671875 48.703125 -0.734375 L 48.75 -0.75 C 49.03125 -0.789062 49.300781 -0.847656 49.5625 -0.921875 C 50.84375 -1.117188 52.117188 -1.320312 53.390625 -1.53125 C 60.953125 -2.738281 68.5 -3.789062 76.03125 -4.6875 C 84.21875 -5.738281 92.40625 -6.554688 100.59375 -7.140625 C 103.207031 -7.347656 105.8125 -7.546875 108.40625 -7.734375 C 111.539062 -7.972656 114.679688 -8.207031 117.828125 -8.4375 C 119.648438 -8.539062 121.472656 -8.609375 123.296875 -8.640625 C 123.742188 -8.671875 124.203125 -8.691406 124.671875 -8.703125 C 125.015625 -8.703125 125.359375 -8.660156 125.703125 -8.578125 Z M 31.015625 -24.5 C 31.046875 -24.53125 31.082031 -24.585938 31.125 -24.671875 C 31.164062 -24.765625 31.195312 -24.832031 31.21875 -24.875 C 31.207031 -24.9375 31.1875 -24.972656 31.15625 -24.984375 C 31.132812 -25.003906 31.085938 -25.039062 31.015625 -25.09375 C 31.015625 -25.09375 31.003906 -25.101562 30.984375 -25.125 C 30.722656 -25.019531 30.492188 -24.835938 30.296875 -24.578125 C 30.253906 -24.503906 30.242188 -24.4375 30.265625 -24.375 C 30.285156 -24.320312 30.335938 -24.300781 30.421875 -24.3125 C 30.617188 -24.34375 30.816406 -24.40625 31.015625 -24.5 Z M 33.734375 4.296875 C 33.765625 4.253906 33.8125 4.226562 33.875 4.21875 C 33.96875 4.175781 34.054688 4.113281 34.140625 4.03125 C 34.234375 3.957031 34.296875 3.847656 34.328125 3.703125 C 34.253906 3.617188 34.203125 3.570312 34.171875 3.5625 C 34.128906 3.5625 34.097656 3.566406 34.078125 3.578125 C 27.972656 4.847656 21.882812 6.363281 15.8125 8.125 C 12.820312 8.988281 9.875 10.0625 6.96875 11.34375 C 6.90625 11.382812 6.832031 11.421875 6.75 11.453125 C 6.25 11.648438 5.804688 11.941406 5.421875 12.328125 C 5.328125 12.429688 5.269531 12.535156 5.25 12.640625 C 5.238281 12.742188 5.304688 12.828125 5.453125 12.890625 C 5.722656 12.953125 6.015625 12.992188 6.328125 13.015625 C 7.328125 13.035156 8.335938 12.960938 9.359375 12.796875 C 10.234375 12.660156 11.097656 12.476562 11.953125 12.25 C 19.367188 10.394531 26.628906 7.742188 33.734375 4.296875 Z M 33.734375 4.296875 "/></g></g><g transform="translate(243.695368, 205.436349)"><g><path d="M 7.0625 -9.640625 C 7.375 -10.085938 7.65625 -10.351562 7.90625 -10.4375 C 8.15625 -10.519531 8.328125 -10.503906 8.421875 -10.390625 C 8.523438 -10.285156 8.503906 -10.109375 8.359375 -9.859375 C 7.535156 -8.460938 6.566406 -7.21875 5.453125 -6.125 C 4.335938 -5.03125 3.125 -4.300781 1.8125 -3.9375 C 0.5 -3.582031 -0.425781 -4.179688 -0.96875 -5.734375 C -1.4375 -7.285156 -1 -10.671875 0.34375 -15.890625 C 1.6875 -21.109375 2.71875 -25.367188 3.4375 -28.671875 C 3.5 -28.972656 3.617188 -29.242188 3.796875 -29.484375 C 4.023438 -29.804688 4.34375 -29.921875 4.75 -29.828125 C 4.894531 -29.785156 5.039062 -29.710938 5.1875 -29.609375 C 5.332031 -29.515625 5.410156 -29.296875 5.421875 -28.953125 C 2.054688 -15.085938 0.550781 -7.601562 0.90625 -6.5 C 1.257812 -5.394531 2.035156 -5.234375 3.234375 -6.015625 C 4.429688 -6.804688 5.332031 -7.554688 5.9375 -8.265625 C 6.539062 -8.972656 6.914062 -9.429688 7.0625 -9.640625 Z M 7.0625 -9.640625 "/></g></g><g transform="translate(252.35339, 204.030081)"><g><path d="M 5.6875 -8.4375 C 5.195312 -7.601562 4.578125 -6.8125 3.828125 -6.0625 C 3.085938 -5.3125 2.203125 -4.742188 1.171875 -4.359375 C 0.148438 -3.972656 -0.679688 -3.914062 -1.328125 -4.1875 C -1.984375 -4.457031 -2.234375 -5.257812 -2.078125 -6.59375 C -1.835938 -7.988281 -1.40625 -9.347656 -0.78125 -10.671875 C -0.632812 -10.960938 -0.398438 -11.1875 -0.078125 -11.34375 C 0.160156 -11.4375 0.390625 -11.425781 0.609375 -11.3125 C 0.828125 -11.195312 0.929688 -11.023438 0.921875 -10.796875 C 0.816406 -10.347656 0.691406 -9.898438 0.546875 -9.453125 C 0.410156 -9.003906 0.320312 -8.710938 0.28125 -8.578125 C -0.0195312 -7.765625 -0.179688 -6.941406 -0.203125 -6.109375 C -0.128906 -5.648438 0.488281 -5.722656 1.65625 -6.328125 C 2.820312 -6.929688 3.90625 -7.867188 4.90625 -9.140625 C 5.90625 -10.410156 6.410156 -10.816406 6.421875 -10.359375 C 6.429688 -9.910156 6.1875 -9.269531 5.6875 -8.4375 Z M 1.75 -13.75 C 1.6875 -13.6875 1.566406 -13.609375 1.390625 -13.515625 C 1.222656 -13.429688 1.039062 -13.351562 0.84375 -13.28125 C 0.65625 -13.21875 0.492188 -13.222656 0.359375 -13.296875 C 0.234375 -13.378906 0.203125 -13.566406 0.265625 -13.859375 C 0.378906 -14.367188 0.503906 -14.820312 0.640625 -15.21875 C 0.773438 -15.625 0.972656 -16.078125 1.234375 -16.578125 C 1.410156 -16.796875 1.617188 -16.929688 1.859375 -16.984375 C 2.097656 -17.035156 2.3125 -17.003906 2.5 -16.890625 C 2.6875 -16.785156 2.765625 -16.601562 2.734375 -16.34375 C 2.617188 -15.375 2.289062 -14.507812 1.75 -13.75 Z M 1.75 -13.75 "/></g></g><g transform="translate(259.120181, 202.930993)"><g><path d="M 1.46875 -7.359375 C 1.082031 -6.984375 0.898438 -6.726562 0.921875 -6.59375 C 0.941406 -6.46875 1.09375 -6.414062 1.375 -6.4375 C 1.65625 -6.457031 1.960938 -6.492188 2.296875 -6.546875 C 2.398438 -6.597656 2.488281 -6.628906 2.5625 -6.640625 C 3.65625 -6.785156 4.734375 -6.800781 5.796875 -6.6875 C 6.117188 -6.632812 6.441406 -6.539062 6.765625 -6.40625 C 6.796875 -6.382812 6.8125 -6.375 6.8125 -6.375 C 6.863281 -6.363281 6.90625 -6.320312 6.9375 -6.25 C 6.96875 -6.175781 6.976562 -6.109375 6.96875 -6.046875 C 6.976562 -5.992188 6.953125 -5.941406 6.890625 -5.890625 C 6.828125 -5.835938 6.78125 -5.800781 6.75 -5.78125 C 6.539062 -5.695312 6.335938 -5.648438 6.140625 -5.640625 C 3.953125 -5.546875 1.789062 -5.316406 -0.34375 -4.953125 C -0.75 -4.878906 -1.164062 -4.8125 -1.59375 -4.75 C -1.71875 -4.726562 -1.859375 -4.691406 -2.015625 -4.640625 C -2.316406 -4.566406 -2.597656 -4.535156 -2.859375 -4.546875 C -3.117188 -4.554688 -3.320312 -4.710938 -3.46875 -5.015625 C -3.550781 -5.273438 -3.507812 -5.476562 -3.34375 -5.625 C -3.175781 -5.769531 -2.972656 -5.894531 -2.734375 -6 C -2.578125 -6.09375 -2.429688 -6.195312 -2.296875 -6.3125 C -0.640625 -7.625 0.925781 -9.03125 2.40625 -10.53125 C 3.007812 -11.113281 3.515625 -11.765625 3.921875 -12.484375 C 4.035156 -12.710938 4.035156 -12.90625 3.921875 -13.0625 C 3.816406 -13.21875 3.628906 -13.285156 3.359375 -13.265625 C 2.554688 -13.222656 1.800781 -13.035156 1.09375 -12.703125 C 1.070312 -12.703125 1.0625 -12.703125 1.0625 -12.703125 C 0.5625 -12.453125 0.0390625 -12.222656 -0.5 -12.015625 C -0.78125 -11.910156 -1.039062 -11.957031 -1.28125 -12.15625 C -1.363281 -12.269531 -1.378906 -12.398438 -1.328125 -12.546875 C -1.285156 -12.703125 -1.15625 -12.847656 -0.9375 -12.984375 C 0.601562 -13.953125 2.296875 -14.484375 4.140625 -14.578125 C 4.566406 -14.566406 4.988281 -14.5 5.40625 -14.375 C 6.207031 -14.113281 6.472656 -13.597656 6.203125 -12.828125 C 5.910156 -11.992188 5.425781 -11.242188 4.75 -10.578125 C 3.875 -9.691406 2.96875 -8.804688 2.03125 -7.921875 C 1.832031 -7.734375 1.644531 -7.546875 1.46875 -7.359375 Z M 1.46875 -7.359375 "/></g></g></g><g clip-path="url(#0e82553c71)"><g clip-path="url(#3b3b3f11e4)"><path fill="#000000" d="M 287.066406 188.25 L 291.136719 188.25 L 291.136719 192.320312 L 287.066406 192.320312 Z M 287.066406 188.25 " fill-opacity="1" fill-rule="nonzero"/></g></g></svg>